<!-- Generated by IcoMoon.io -->
<svg version="1.1" xmlns="http://www.w3.org/2000/svg" width="39" height="32" viewBox="0 0 39 32">
<title>avis-patient</title>
<path d="M5.859 0.67l1.811 3.669 4.051 0.59-2.931 2.854 0.691 4.033-3.621-1.903-3.621 1.903 0.693-4.033-2.931-2.854 4.048-0.59 1.811-3.669zM19.227 0.67l1.811 3.669 4.051 0.59-2.931 2.854 0.691 4.033-3.621-1.903-3.621 1.903 0.693-4.033-2.931-2.854 4.048-0.59 1.811-3.669zM36.611 12.358l-4.013-2.11-4.019 2.11 0.759-4.472-3.26-3.165 4.49-0.652 2.030-4.069 2.009 4.069 4.487 0.652-3.236 3.165zM32.599 9.578l3.224 1.683-0.616-3.583 2.614-2.546-3.61-0.525-1.612-3.269-1.615 3.26-3.61 0.533 2.611 2.546-0.616 3.583zM23.853 32.006h-5.927c-0.027 0-1.091-0.133-1.135-1.42-0.027-0.744-2.074-3.447-3.992-5.728-0.273-0.321-0.454-0.729-0.494-1.177l-0.001-0.008c-0.074-0.889 0.249-1.511 0.936-1.778 0.19-0.074 0.41-0.117 0.64-0.117 0.461 0 0.883 0.172 1.203 0.456l-0.002-0.002 1.008 0.868-0.071-7.098c-0-0.012-0-0.027-0-0.041 0-0.363 0.096-0.703 0.263-0.997l-0.005 0.010c0.379-0.646 1.014-0.889 1.885-0.753 0.886 0.147 1.557 0.897 1.579 1.808l0 0.002v1.704c0.111-0.026 0.238-0.041 0.369-0.041 0.672 0 1.252 0.394 1.521 0.964l0.004 0.010c0.245-0.152 0.542-0.243 0.86-0.243 0.212 0 0.415 0.040 0.601 0.113l-0.011-0.004c0.475 0.263 0.831 0.695 0.989 1.212l0.004 0.015c0.173-0.158 0.391-0.268 0.633-0.31l0.008-0.001c0.060-0.011 0.129-0.018 0.199-0.018 0.334 0 0.634 0.144 0.843 0.372l0.001 0.001c0.257 0.273 0.415 0.643 0.415 1.049 0 0.010-0 0.019-0 0.029l0-0.001v6.638c0 0.009 0 0.021 0 0.032 0 0.544-0.21 1.040-0.553 1.41l0.001-0.001c-0.8 0.839-1.153 2.125-1.265 2.64-0.053 0.232-0.258 0.403-0.503 0.403-0 0-0 0-0.001 0h0zM13.851 22.046c-0.002 0-0.003 0-0.005 0-0.184 0-0.359 0.037-0.519 0.104l0.009-0.003c-0.56 0.228-0.815 0.729-0.753 1.482 0.037 0.395 0.193 0.748 0.432 1.028l-0.002-0.003c1.209 1.443 4.024 4.908 4.060 5.909s0.821 1.147 0.854 1.147h5.927c0.106-0.001 0.195-0.076 0.216-0.176l0-0.001c0.122-0.536 0.489-1.885 1.34-2.78 0.292-0.316 0.471-0.74 0.471-1.206 0-0.011-0-0.021-0-0.031l0 0.002v-6.644c0-0.008 0-0.017 0-0.026 0-0.326-0.126-0.622-0.333-0.843l0.001 0.001c-0.156-0.175-0.383-0.285-0.635-0.285-0.051 0-0.101 0.004-0.149 0.013l0.005-0.001c-0.269 0.048-0.495 0.202-0.638 0.417l-0.002 0.004-0.252 0.385-0.021-0.501s-0.228-0.942-0.889-1.233c-0.367-0.16-0.812-0.095-1.322 0.196l-0.151 0.086-0.062-0.163c-0.204-0.549-0.724-0.934-1.334-0.934-0.165 0-0.324 0.028-0.472 0.080l0.010-0.003-0.19 0.056v-2.074c-0.010-0.774-0.581-1.412-1.325-1.525l-0.009-0.001c-0.75-0.127-1.268 0.071-1.58 0.61-0.138 0.241-0.22 0.53-0.22 0.838 0 0.018 0 0.036 0.001 0.054l-0-0.003 0.062 7.738-1.505-1.325c-0.271-0.238-0.628-0.384-1.019-0.388h-0.001z"></path>
</svg>
