<svg xmlns="http://www.w3.org/2000/svg" width="7.917" height="29.029" viewBox="0 0 7.917 29.029">
  <path id="ellipsis-v" d="M7.917,25.091V29.05a1.98,1.98,0,0,1-1.979,1.979H1.979A1.98,1.98,0,0,1,0,29.05V25.091a1.98,1.98,0,0,1,1.979-1.979H5.938A1.98,1.98,0,0,1,7.917,25.091Zm0-10.556v3.959a1.98,1.98,0,0,1-1.979,1.979H1.979A1.98,1.98,0,0,1,0,18.494V14.535a1.98,1.98,0,0,1,1.979-1.979H5.938A1.98,1.98,0,0,1,7.917,14.535Zm0-10.556V7.938A1.98,1.98,0,0,1,5.938,9.917H1.979A1.98,1.98,0,0,1,0,7.938V3.979A1.98,1.98,0,0,1,1.979,2H5.938A1.98,1.98,0,0,1,7.917,3.979Z" transform="translate(0 -2)" fill="#134058"/>
</svg>
