<!-- Generated by IcoMoon.io -->
<svg version="1.1" xmlns="http://www.w3.org/2000/svg" width="76" height="32" viewBox="0 0 76 32">
<title>Fichier-21</title>
<path d="M63.010 0.037c-13.192 1.261-36.889 1.261-50.081 0-7.687-0.604-13.636 6.126-12.863 13.656-0.653 13.307 18.788 24.408 31.158 14.519 2.621-2.112 6.438-2.979 9.675-1.964 31.281 21.589 48.573-25.086 22.111-26.211zM27.559 15.271c-6.672 4.897-20.916 1.38-16.364-4.063 5.144-5.361 22.123-1.426 16.364 4.063zM64.596 15.189c-4.425 4.77-22.119 1.656-16.298-4.133 3.632-2.149 10.070-4.519 16.401 0.152 0.592 0.455 0.969 1.163 0.969 1.96 0 0.841-0.421 1.584-1.064 2.028l-0.008 0.005z"></path>
</svg>
