<!-- Generated by IcoMoon.io -->
<svg version="1.1" xmlns="http://www.w3.org/2000/svg" width="34" height="32" viewBox="0 0 34 32">
<title>Groupe-2</title>
<path fill="#464646" d="M18.371 21.955h-3.2c-0.64 0-1.159 0.518-1.16 1.158v1.968c0.002 0.639 0.519 1.156 1.158 1.158h3.2c0.639-0.002 1.156-0.519 1.158-1.158v-1.968c-0.017-0.632-0.524-1.14-1.154-1.158l-0.002-0z"></path>
<path fill="#464646" d="M26.629 21.955h-3.2c-0.64 0-1.159 0.518-1.16 1.158v1.968c0.002 0.639 0.519 1.156 1.158 1.158h3.2c0.639-0.002 1.156-0.519 1.158-1.158v-1.968c-0.017-0.632-0.524-1.14-1.154-1.158l-0.002-0z"></path>
<path fill="#464646" d="M10.115 21.955h-3.2c-0.64 0-1.159 0.518-1.16 1.158v1.968c0.002 0.639 0.519 1.156 1.158 1.158h3.2c0.639-0.002 1.156-0.519 1.158-1.158v-1.968c-0.017-0.632-0.524-1.14-1.154-1.158l-0.002-0z"></path>
<path fill="#464646" d="M18.371 14.741h-3.2c-0.64 0-1.159 0.518-1.16 1.158v1.968c0.002 0.639 0.519 1.156 1.158 1.158h3.2c0.639-0.002 1.156-0.519 1.158-1.158v-1.968c-0.017-0.632-0.524-1.14-1.154-1.158l-0.002-0z"></path>
<path fill="#464646" d="M10.115 14.741h-3.2c-0.64 0-1.159 0.518-1.16 1.158v1.968c0.002 0.639 0.519 1.156 1.158 1.158h3.2c0.639-0.002 1.156-0.519 1.158-1.158v-1.968c-0.017-0.632-0.524-1.14-1.154-1.158l-0.002-0z"></path>
<path fill="#464646" d="M26.629 14.741h-3.2c-0.64 0-1.159 0.518-1.16 1.158v1.968c0.002 0.639 0.519 1.156 1.158 1.158h3.2c0.639-0.002 1.156-0.519 1.158-1.158v-1.968c-0.017-0.632-0.524-1.14-1.154-1.158l-0.002-0z"></path>
<path fill="#464646" d="M33.535 6.985c-0.003-0.998-0.385-1.906-1.008-2.589l0.003 0.003v-0.039h-0.039c-0.724-0.806-1.769-1.311-2.932-1.312h-2.893v-1.734c0-0.003 0-0.007 0-0.010 0-0.715-0.577-1.295-1.29-1.301h-1.99c-0.003-0-0.007-0-0.011-0-0.715 0-1.295 0.576-1.301 1.29v1.76h-10.651v-1.738c0-0.003 0-0.007 0-0.011 0-0.715-0.576-1.295-1.29-1.301h-1.996c-0.002 0-0.004-0-0.007-0-0.716 0-1.297 0.579-1.301 1.294v1.755h-2.899c-1.161 0.002-2.204 0.507-2.923 1.308l-0.003 0.004v0.039c-0.621 0.68-1.002 1.588-1.005 2.585v21.030c0.012 2.167 1.765 3.92 3.931 3.932h0.001c0.118 0.031 22.266 0.098 25.624 0 4.115 0.16 3.657-3.776 3.677-3.932zM21.611 29.329h-17.679c-0.002 0-0.004 0-0.006 0-0.717 0-1.298-0.579-1.302-1.295v-0c0-0.006 0-0.012 0-0.018v-16.052h28.248v15.747c0 0.895-0.726 1.621-1.621 1.621v0z"></path>
</svg>
