<!-- Generated by IcoMoon.io -->
<svg version="1.1" xmlns="http://www.w3.org/2000/svg" width="33" height="32" viewBox="0 0 33 32">
<title>Groupe-254</title>
<path fill="#4a7baa" d="M16.353 19.525h-2.85c-0.567 0-1.027 0.46-1.027 1.027v0 1.751c0 0.567 0.46 1.027 1.027 1.027v0h2.85c0.567 0 1.027-0.46 1.027-1.027v0-1.749c-0.015-0.562-0.465-1.014-1.026-1.030l-0.002-0z"></path>
<path fill="#4a7baa" d="M9.006 19.525h-2.85c-0.567 0-1.027 0.46-1.027 1.027v0 1.751c0 0.567 0.46 1.027 1.027 1.027v0h2.85c0.567 0 1.027-0.46 1.027-1.027v0-1.749c-0.015-0.562-0.466-1.014-1.026-1.030l-0.002-0z"></path>
<path fill="#4a7baa" d="M16.353 13.105h-2.85c-0.567 0-1.027 0.46-1.027 1.027v0 1.751c0 0.567 0.46 1.027 1.027 1.027v0h2.85c0.567 0 1.027-0.46 1.027-1.027v0-1.749c-0.015-0.562-0.465-1.014-1.026-1.030l-0.002-0z"></path>
<path fill="#4a7baa" d="M9.006 13.105h-2.85c-0.567 0-1.027 0.46-1.027 1.027v0 1.751c0 0.567 0.46 1.027 1.027 1.027v0h2.85c0.567 0 1.027-0.46 1.027-1.027v0-1.749c-0.015-0.562-0.466-1.014-1.026-1.030l-0.002-0z"></path>
<path fill="#4a7baa" d="M23.702 13.105h-2.85c-0.567 0-1.027 0.46-1.027 1.027v0 1.751c0 0.567 0.46 1.027 1.027 1.027h2.85c0.567 0 1.027-0.46 1.027-1.027v0-1.749c-0.015-0.562-0.465-1.014-1.026-1.030l-0.002-0z"></path>
<path fill="#4a7baa" d="M29.837 19.846v-13.631c-0.004-0.888-0.345-1.696-0.901-2.303l0.002 0.003v-0.028h-0.035c-0.644-0.718-1.574-1.168-2.61-1.168h-2.568v-1.541c0-0.003 0-0.008 0-0.012 0-0.638-0.517-1.155-1.155-1.155-0.004 0-0.008 0-0.012 0h-1.752c-0.004-0-0.008-0-0.013-0-0.638 0-1.155 0.517-1.155 1.155 0 0.004 0 0.008 0 0.012v-0.001 1.541h-9.476v-1.541c0-0.003 0-0.008 0-0.012 0-0.638-0.517-1.155-1.155-1.155-0.004 0-0.008 0-0.012 0h-1.75c-0.003-0-0.008-0-0.012-0-0.638 0-1.155 0.517-1.155 1.155 0 0.004 0 0.008 0 0.012v-0.001 1.541h-2.575c-1.036 0.001-1.966 0.45-2.607 1.165l-0.003 0.003v0.035c-0.554 0.605-0.895 1.412-0.899 2.3v18.707c0.008 1.931 1.571 3.494 3.501 3.502h16.454c1.15 2.151 3.381 3.59 5.948 3.59 3.713 0 6.723-3.010 6.723-6.723 0-2.234-1.090-4.214-2.767-5.437l-0.019-0.013zM19.158 25.272c0.007 0.297 0.032 0.582 0.074 0.861l-0.005-0.037h-15.725c-0.003 0-0.008 0-0.012 0-0.638 0-1.155-0.517-1.155-1.155 0-0.004 0-0.008 0-0.012v0.001-14.285h25.127v8.103c-0.469-0.13-1.007-0.205-1.563-0.205-0.006 0-0.011 0-0.017 0h0.001c-3.711 0.009-6.717 3.017-6.723 6.728v0.001zM30.070 24.040l-4.365 4.365c-0.089 0.088-0.211 0.142-0.345 0.142s-0.257-0.054-0.345-0.142l-2.532-2.532c-0.088-0.089-0.142-0.211-0.142-0.345s0.054-0.257 0.142-0.345l-0 0 0.692-0.691c0.089-0.088 0.211-0.142 0.345-0.142s0.257 0.054 0.345 0.142l-0-0 1.494 1.499 3.338-3.338c0.089-0.088 0.211-0.143 0.346-0.143s0.257 0.055 0.346 0.143l0.691 0.691c0.088 0.089 0.142 0.211 0.142 0.345s-0.054 0.257-0.142 0.345l0-0z"></path>
</svg>
