<!-- Generated by IcoMoon.io -->
<svg version="1.1" xmlns="http://www.w3.org/2000/svg" width="9" height="32" viewBox="0 0 9 32">
<title>ellipsis-v</title>
<path fill="#134058" d="M8.727 25.454v4.364c-0.001 1.205-0.977 2.181-2.181 2.182h-4.364c-1.205-0.001-2.181-0.977-2.182-2.181v-4.364c0.001-1.205 0.977-2.181 2.181-2.182h4.364c1.205 0.001 2.181 0.977 2.182 2.181v0zM8.727 13.818v4.364c-0.001 1.205-0.977 2.181-2.181 2.182h-4.364c-1.205-0.001-2.181-0.977-2.182-2.181v-4.364c0.001-1.205 0.977-2.181 2.181-2.182h4.364c1.205 0.001 2.181 0.977 2.182 2.181v0zM8.727 2.182v4.364c-0.001 1.205-0.977 2.181-2.181 2.182h-4.364c-1.205-0.001-2.181-0.977-2.182-2.181v-4.364c0.001-1.205 0.977-2.181 2.181-2.182h4.364c1.205 0.001 2.181 0.977 2.182 2.181v0z"></path>
</svg>
