<svg xmlns="http://www.w3.org/2000/svg" xmlns:xlink="http://www.w3.org/1999/xlink" width="7.355" height="11.985" viewBox="0 0 7.355 11.985">
  <defs>
    <filter id="Tracé_56" x="0" y="0" width="7.355" height="11.985" filterUnits="userSpaceOnUse">
      <feOffset dy="3" input="SourceAlpha"/>
      <feGaussianBlur stdDeviation="3" result="blur"/>
      <feFlood flood-opacity="0.161" result="color"/>
      <feComposite operator="out" in="SourceGraphic" in2="blur"/>
      <feComposite operator="in" in="color"/>
      <feComposite operator="in" in2="SourceGraphic"/>
    </filter>
  </defs>
  <g id="Groupe_301" data-name="Groupe 301" transform="translate(-56.011 -19.816)">
    <g data-type="innerShadowGroup">
      <path id="Tracé_56-2" data-name="Tracé 56" d="M59.689,31.551a.355.355,0,0,1-.351-.306l-.629-4.491a.024.024,0,0,0-.024-.02H56.721a.484.484,0,0,1-.365-.118.461.461,0,0,1-.094-.349A1.978,1.978,0,0,1,57.6,24.46a.021.021,0,0,0,.012-.022c-.048-.592-.1-2.75-.1-2.842a.1.1,0,0,0-.1-.087h-.372a.657.657,0,0,1-.656-.656V20.73a.665.665,0,0,1,.664-.664h5.314a.632.632,0,0,1,.631.631v.123a.69.69,0,0,1-.69.689h-.339a.1.1,0,0,0-.1.094l-.1,2.815c0,.017,0,.026.014.029a2.057,2.057,0,0,1,1.337,1.872c0,.141-.006.466-.351.466l-2.072-.048a.021.021,0,0,0-.024.02l-.629,4.487a.355.355,0,0,1-.351.306Zm-1-5.148a.356.356,0,0,1,.351.305l.629,4.491c0,.012.01.021.023.021a.022.022,0,0,0,.02-.011l.632-4.5a.354.354,0,0,1,.351-.305H60.7l2.068.048h0a.676.676,0,0,0,.011-.137,1.692,1.692,0,0,0-1.113-1.556.353.353,0,0,1-.237-.361l.1-2.813a.435.435,0,0,1,.432-.409H62.3a.359.359,0,0,0,.358-.358V20.7a.3.3,0,0,0-.3-.3H57.049a.334.334,0,0,0-.333.333v.123a.326.326,0,0,0,.325.325h.372a.434.434,0,0,1,.431.4c0,.03.051,2.248.1,2.829a.352.352,0,0,1-.213.354,1.652,1.652,0,0,0-1.136,1.5v.014s.006.114.007.118S56.63,26.4,58.685,26.4Z" transform="translate(0)" fill="#083751"/>
      <g transform="matrix(1, 0, 0, 1, 56.01, 19.82)" filter="url(#Tracé_56)">
        <path id="Tracé_56-3" data-name="Tracé 56" d="M59.689,31.551a.355.355,0,0,1-.351-.306l-.629-4.491a.024.024,0,0,0-.024-.02H56.721a.484.484,0,0,1-.365-.118.461.461,0,0,1-.094-.349A1.978,1.978,0,0,1,57.6,24.46a.021.021,0,0,0,.012-.022c-.048-.592-.1-2.75-.1-2.842a.1.1,0,0,0-.1-.087h-.372a.657.657,0,0,1-.656-.656V20.73a.665.665,0,0,1,.664-.664h5.314a.632.632,0,0,1,.631.631v.123a.69.69,0,0,1-.69.689h-.339a.1.1,0,0,0-.1.094l-.1,2.815c0,.017,0,.026.014.029a2.057,2.057,0,0,1,1.337,1.872c0,.141-.006.466-.351.466l-2.072-.048a.021.021,0,0,0-.024.02l-.629,4.487a.355.355,0,0,1-.351.306Zm-1-5.148a.356.356,0,0,1,.351.305l.629,4.491c0,.012.01.021.023.021a.022.022,0,0,0,.02-.011l.632-4.5a.354.354,0,0,1,.351-.305H60.7l2.068.048h0a.676.676,0,0,0,.011-.137,1.692,1.692,0,0,0-1.113-1.556.353.353,0,0,1-.237-.361l.1-2.813a.435.435,0,0,1,.432-.409H62.3a.359.359,0,0,0,.358-.358V20.7a.3.3,0,0,0-.3-.3H57.049a.334.334,0,0,0-.333.333v.123a.326.326,0,0,0,.325.325h.372a.434.434,0,0,1,.431.4c0,.03.051,2.248.1,2.829a.352.352,0,0,1-.213.354,1.652,1.652,0,0,0-1.136,1.5v.014s.006.114.007.118S56.63,26.4,58.685,26.4Z" transform="translate(-56.01 -19.82)" fill="#fff"/>
      </g>
      <path id="Tracé_56-4" data-name="Tracé 56" d="M59.689,31.551a.355.355,0,0,1-.351-.306l-.629-4.491a.024.024,0,0,0-.024-.02H56.721a.484.484,0,0,1-.365-.118.461.461,0,0,1-.094-.349A1.978,1.978,0,0,1,57.6,24.46a.021.021,0,0,0,.012-.022c-.048-.592-.1-2.75-.1-2.842a.1.1,0,0,0-.1-.087h-.372a.657.657,0,0,1-.656-.656V20.73a.665.665,0,0,1,.664-.664h5.314a.632.632,0,0,1,.631.631v.123a.69.69,0,0,1-.69.689h-.339a.1.1,0,0,0-.1.094l-.1,2.815c0,.017,0,.026.014.029a2.057,2.057,0,0,1,1.337,1.872c0,.141-.006.466-.351.466l-2.072-.048a.021.021,0,0,0-.024.02l-.629,4.487a.355.355,0,0,1-.351.306Zm-1-5.148a.356.356,0,0,1,.351.305l.629,4.491c0,.012.01.021.023.021a.022.022,0,0,0,.02-.011l.632-4.5a.354.354,0,0,1,.351-.305H60.7l2.068.048h0a.676.676,0,0,0,.011-.137,1.692,1.692,0,0,0-1.113-1.556.353.353,0,0,1-.237-.361l.1-2.813a.435.435,0,0,1,.432-.409H62.3a.359.359,0,0,0,.358-.358V20.7a.3.3,0,0,0-.3-.3H57.049a.334.334,0,0,0-.333.333v.123a.326.326,0,0,0,.325.325h.372a.434.434,0,0,1,.431.4c0,.03.051,2.248.1,2.829a.352.352,0,0,1-.213.354,1.652,1.652,0,0,0-1.136,1.5v.014s.006.114.007.118S56.63,26.4,58.685,26.4Z" transform="translate(0)" fill="none" stroke="#083751" stroke-width="0.5"/>
    </g>
  </g>
</svg>
