<!-- Generated by IcoMoon.io -->
<svg version="1.1" xmlns="http://www.w3.org/2000/svg" width="32" height="32" viewBox="0 0 32 32">
<title>Groupe-460</title>
<path fill="#5d9ad4" d="M9.114 31.265h-8.379v-8.379l16.766-16.77 8.379 8.379-16.766 16.77zM4.393 27.477v2.58h2.157l1.83-1.832-4.732-4.738-1.835 1.835v2.157zM27.178 13.21l-8.379-8.379 3.337-3.33c0.459-0.473 1.1-0.766 1.81-0.766 0.002 0 0.003 0 0.005 0h-0c0.717 0.004 1.365 0.296 1.835 0.766v0l4.735 4.716c0.456 0.476 0.739 1.121 0.745 1.832v0.001c-0 0.707-0.285 1.348-0.746 1.814l-3.346 3.346z"></path>
</svg>
