<!-- Generated by IcoMoon.io -->
<svg version="1.1" xmlns="http://www.w3.org/2000/svg" width="21" height="32" viewBox="0 0 21 32">
<title>Groupe-368</title>
<path fill="#5d9ad4" d="M11.080 31.658c-0.176 0.21-0.438 0.343-0.731 0.343s-0.556-0.133-0.73-0.342l-0.001-0.002c-0.38-0.457-9.049-10.962-9.599-20.38-0.017-0.223-0.026-0.484-0.026-0.747 0-5.719 4.557-10.373 10.238-10.53l0.014-0c0.027-0 0.059-0 0.092-0 5.723 0 10.363 4.636 10.369 10.357v0.001c0 9.639-9.233 20.828-9.626 21.301zM10.234 1.906c-4.641 0.174-8.338 3.979-8.338 8.647 0 0.274 0.013 0.544 0.038 0.811l-0.003-0.034c0.448 6.46 5.165 13.735 7.65 17.146 0.175 0.239 0.454 0.392 0.769 0.392s0.594-0.153 0.767-0.39l0.002-0.003c2.604-3.584 7.685-11.432 7.685-18.119-0.006-4.669-3.793-8.452-8.463-8.452-0.037 0-0.075 0-0.112 0.001l0.006-0zM10.349 16.954c-3.642 0-6.595-2.953-6.595-6.595s2.953-6.595 6.595-6.595c3.642 0 6.594 2.952 6.595 6.593v0c-0.004 3.641-2.954 6.591-6.595 6.595h-0zM10.349 5.669c-2.59 0-4.69 2.1-4.69 4.69s2.1 4.69 4.69 4.69c2.59 0 4.69-2.1 4.69-4.69v0c-0.002-2.59-2.101-4.689-4.69-4.692h-0z"></path>
</svg>
