<!-- Generated by IcoMoon.io -->
<svg version="1.1" xmlns="http://www.w3.org/2000/svg" width="32" height="32" viewBox="0 0 32 32">
<title>Groupe-367</title>
<path fill="#5d9ad4" stroke="#5d9ad4" stroke-linejoin="miter" stroke-linecap="butt" stroke-miterlimit="4" stroke-width="0.7342" d="M12.247 15.93c1.030 0.427 2.223 0.71 3.471 0.79l0.033 0.002c1.209-0.040 2.349-0.283 3.404-0.697l-0.070 0.024h-0.012c2.904-1.299 4.891-4.163 4.891-7.491 0-4.519-3.663-8.182-8.182-8.182s-8.182 3.663-8.182 8.182c0 2.26 0.917 4.307 2.398 5.788l0 0c0.637 0.636 1.38 1.167 2.2 1.563l0.048 0.021zM15.791 1.419c3.941 0 7.135 3.195 7.135 7.135s-3.195 7.135-7.135 7.135c-3.941 0-7.135-3.194-7.135-7.135v0c0.007-3.938 3.197-7.128 7.135-7.134h0.001z"></path>
<path fill="#5d9ad4" stroke="#5d9ad4" stroke-linejoin="miter" stroke-linecap="butt" stroke-miterlimit="4" stroke-width="0.7342" d="M20.216 16.344c-0.429 0.255-0.926 0.49-1.447 0.677l-0.061 0.019c6.411 1.37 11.191 6.865 11.453 13.522l0.001 0.027h-28.737c0.261-6.667 5.018-12.151 11.31-13.522l0.095-0.017c-0.561-0.195-1.039-0.414-1.492-0.673l0.043 0.023-0.025-0.015-0.028-0.032c-6.388 1.985-10.948 7.839-10.959 14.759v0.001c0 0.001-0 0.003-0 0.004 0 0.285 0.231 0.515 0.515 0.515 0.002 0 0.003 0 0.005-0h29.797c0.001 0 0.003 0 0.004 0 0.285 0 0.515-0.231 0.515-0.515 0-0.002 0-0.003-0-0.005v0c0-0 0-0 0-0.001 0-6.936-4.58-12.802-10.88-14.74l-0.109-0.029z"></path>
</svg>
