<!-- Generated by IcoMoon.io -->
<svg version="1.1" xmlns="http://www.w3.org/2000/svg" width="32" height="32" viewBox="0 0 32 32">
<title>Soustraction-1</title>
<path fill="#134058" d="M16.001 32.002c-8.833-0.010-15.991-7.168-16.001-16v-0.001c0.010-8.833 7.168-15.991 16-16.001h0.001c8.833 0.010 15.991 7.168 16.001 16v0.001c-0.009 8.833-7.168 15.992-16 16.001h-0.001zM16.157 12.863c-1.472 0.002-2.665 1.196-2.666 2.668v10.353c0.001 1.472 1.194 2.666 2.666 2.668h0c1.474-0.001 2.668-1.196 2.668-2.67v0-10.353c-0.002-1.472-1.196-2.665-2.668-2.666h-0zM16.001 3.764c-1.916 0.048-3.451 1.612-3.451 3.535 0 0.023 0 0.046 0.001 0.068l-0-0.003c-0.001 0.024-0.001 0.053-0.001 0.081 0 1.923 1.535 3.488 3.447 3.535l0.004 0c1.916-0.048 3.451-1.612 3.451-3.535 0-0.023-0-0.046-0.001-0.068l0 0.003c0.001-0.024 0.001-0.053 0.001-0.081 0-1.923-1.535-3.488-3.447-3.535l-0.004-0z"></path>
</svg>
