<!-- Generated by IcoMoon.io -->
<svg version="1.1" xmlns="http://www.w3.org/2000/svg" width="39" height="32" viewBox="0 0 39 32">
<title>survey</title>
<path d="M7.432 2.065c-10.013 6.194-10.013 21.677 0 27.871 3.716 2.271 13.626 2.89 14.865 0.929 0.413-0.826 0.929-0.826 1.755 0 2.168 2.168 4.439 1.135 9.91-4.439 4.748-4.852 5.368-5.884 4.232-7.226-1.961-2.374-3.097-2.065-7.432 2.168-3.819 3.716-4.026 3.819-5.781 1.858-1.652-1.858-1.652-1.858 0.103-0.516 1.548 1.135 2.168 1.032 4.335-1.032 5.058-4.748 2.477-15.174-4.852-19.613-4.542-2.787-12.594-2.787-17.135 0zM20.439 6.916c0.31 4.335 0.31 4.335 4.645 4.645s4.335 0.31 4.335 4.335c0 3.923-0.103 4.129-4.645 5.161-4.439 1.032-4.645 1.342-4.645 4.748 0 3.51-0.103 3.613-4.129 3.613-4.129 0-4.129 0-4.439-4.335s-0.31-4.335-4.645-4.645-4.335-0.31-4.335-4.439 0-4.129 4.439-4.439c4.232-0.31 4.335-0.413 4.335-4.232 0-4.852 0.619-5.471 5.161-5.058 3.406 0.31 3.613 0.516 3.923 4.645z"></path>
</svg>
