<!-- Generated by IcoMoon.io -->
<svg version="1.1" xmlns="http://www.w3.org/2000/svg" width="32" height="32" viewBox="0 0 32 32">
<title>sync</title>
<path d="M0 16c0 3.929 1.618 7.467 4.187 10.036l-4.187 4.187h10.667v-10.667l-3.973 3.973c-1.938-1.929-3.138-4.587-3.138-7.529 0-4.64 2.969-8.578 7.111-10.044v-3.716c-6.133 1.582-10.667 7.138-10.667 13.76zM14.222 21.333h3.556v3.556h-3.556v-3.556zM32 1.778h-10.667v10.667l3.973-3.973c1.938 1.929 3.138 4.587 3.138 7.529 0 4.64-2.969 8.578-7.111 10.044v3.707c6.133-1.573 10.667-7.129 10.667-13.751 0-3.929-1.618-7.467-4.187-10.036l4.187-4.187zM14.222 7.111h3.556v10.667h-3.556v-10.667z"></path>
</svg>
