<!-- Generated by IcoMoon.io -->
<svg version="1.1" xmlns="http://www.w3.org/2000/svg" width="29" height="32" viewBox="0 0 29 32">
<title>Trac-39</title>
<path fill="#134058" d="M17.262 32c-5.343 0-9.689-3.781-9.689-8.427v-1.876c-4.367-0.855-7.573-4.279-7.573-8.222v-10.098c0.001-1.13 0.887-2.053 2.002-2.113l0.005-0c0.624-0.774 1.572-1.265 2.635-1.265 1.865 0 3.378 1.512 3.378 3.378s-1.512 3.378-3.378 3.378c-0.001 0-0.002 0-0.003 0h0c-0.144-0-0.286-0.010-0.424-0.029l0.016 0.002v6.746c0 2.313 2.447 4.194 5.452 4.194s5.452-1.882 5.452-4.194v-6.745c-0.123 0.017-0.264 0.027-0.409 0.027h-0c-0.002 0-0.003 0-0.005 0-1.866 0-3.379-1.513-3.379-3.379s1.513-3.379 3.379-3.379c1.064 0 2.013 0.492 2.633 1.26l0.005 0.006c1.121 0.060 2.007 0.983 2.008 2.113v10.098c0 3.943-3.206 7.367-7.573 8.222v1.875c0 2.313 2.449 4.194 5.452 4.194s5.452-1.882 5.452-4.194v-7.23c-1.509-0.774-2.525-2.319-2.525-4.102 0-0.010 0-0.019 0-0.029v0.001c0-2.563 2.078-4.641 4.641-4.641s4.641 2.078 4.641 4.641v0c0 0.008 0 0.018 0 0.027 0 1.783-1.015 3.328-2.499 4.090l-0.026 0.012v7.23c0.021 4.646-4.325 8.427-9.668 8.427z"></path>
</svg>
